<?xml version="1.0" encoding="utf-8"?>
<!-- Generator: Adobe Illustrator 24.0.1, SVG Export Plug-In . SVG Version: 6.00 Build 0)  -->
<svg version="1.1" id="Layer_1" xmlns="http://www.w3.org/2000/svg" xmlns:xlink="http://www.w3.org/1999/xlink" x="0px" y="0px"
	 viewBox="0 0 512 443.5" style="enable-background:new 0 0 512 443.5;" xml:space="preserve">
<style type="text/css">
	.st0{fill:#46535C;}
</style>
<g>
	<g>
		<g>
			<path class="st0" d="M371.5,14.3c-1.3-3.9-5.5-6.1-9.5-4.8l-2.7,0.9V7.5c0-4.1-3.4-7.5-7.5-7.5s-7.5,3.4-7.5,7.5v2.9l-2.7-0.9
				c-3.9-1.3-8.2,0.9-9.5,4.8c-1.3,3.9,0.9,8.2,4.8,9.5l2.8,0.9l-1.7,2.4c-3.6,5,0,11.9,6.1,11.9c4.4,0,6.1-3.1,7.7-5.4l1.6,2.3
				c2.4,3.4,7.1,4.1,10.5,1.7c3.4-2.4,4.1-7.1,1.7-10.5l-1.7-2.4l2.8-0.9C370.6,22.5,372.8,18.3,371.5,14.3z"/>
		</g>
	</g>
	<g>
		<g>
			<path class="st0" d="M445.6,94.8c-1.3-3.9-5.5-6.1-9.5-4.8l-2.7,0.9V88c0-4.1-3.4-7.5-7.5-7.5s-7.5,3.4-7.5,7.5v2.9l-2.7-0.9
				c-3.9-1.3-8.2,0.9-9.5,4.8c-1.3,3.9,0.9,8.2,4.8,9.5l2.8,0.9l-1.7,2.4c-2.4,3.4-1.7,8,1.7,10.5c3.4,2.4,8,1.7,10.5-1.7l1.6-2.3
				c1.6,2.2,3.3,5.4,7.7,5.4c6,0,9.7-6.9,6.1-11.9l-1.7-2.4l2.8-0.9C444.8,103,446.9,98.8,445.6,94.8z"/>
		</g>
	</g>
	<g>
		<g>
			<circle class="st0" cx="345.5" cy="77.5" r="7.5"/>
		</g>
	</g>
	<g>
		<g>
			<circle class="st0" cx="465.5" cy="198.9" r="7.5"/>
		</g>
	</g>
	<g>
		<g>
			<circle class="st0" cx="387.5" cy="141.5" r="7.5"/>
		</g>
	</g>
	<g>
		<g>
			<circle class="st0" cx="468.5" cy="43.5" r="7.5"/>
		</g>
	</g>
	<g>
		<g>
			<path class="st0" d="M329.9,95.2c-3.9-4.8-9.4-5.3-9.4-5.3c-4.3-0.6-7.9,2.5-8.5,6.4c-0.6,4.1,2.3,7.9,6.3,8.5l-13.4,13
				c-1.8,1.7-2.6,4.2-2.2,6.6l3.2,18.4c0,0,0,0,0,0c-22-11.6-18.2-11.5-40,0h0c0,0,0,0,0,0l3.2-18.4c0.4-2.4-0.4-4.9-2.1-6.6
				l-13.4-13l18.5-2.7c2.4-0.4,4.5-1.9,5.6-4.1l8.3-16.8l3.3,6.6c1.3,2.6,3.9,4.2,6.7,4.2c5.6,0,9.2-5.8,6.7-10.8l-3.3-6.6
				c-5.5-11.3-21.5-11-26.9,0L266,87.8c-14.9,2.2-19.5,1.9-24,7.4c-2.2,2.7-3.4,6-3.4,9.6c-0.1,7.8,4.5,10.6,15.1,21l-2.5,14.5
				c-0.1,0.8-0.2,1.7-0.2,2.6c0,4,1.6,7.9,4.5,10.7c2.9,2.8,6.7,4.3,10.5,4.3c4.7,0,6.3-1.4,20-8.6h0l13,6.9c9.9,5.3,22-2,22-13.2
				c0-0.9-0.1-1.7-0.2-2.6l-2.5-14.5l10.6-10.3C334.4,110.1,334.9,101.3,329.9,95.2z"/>
		</g>
	</g>
	<g>
		<g>
			<path class="st0" d="M504.5,228.5h-99.8l3.6-3.5c10-9.8,4.5-26.8-9.4-28.8l-19.3-2.8L371,176c-6.2-12.6-24.1-12.5-30.3,0
				l-8.6,17.5l-19.3,2.8c-13.9,2-19.4,19-9.4,28.8l3.6,3.5h-26.8c0.4-4.3-1-8.8-4.3-12.1l-42.4-42.4c-5.8-5.8-15.4-5.8-21.2,0
				c-14.5,14.5-18.8,18.8-26.1,26.1l-28.8-28.8c-7-7-17-9.7-26.6-7.1c-9.6,2.6-16.9,9.8-19.4,19.4l-15,56.1
				c-9,3.8-16,10.9-19.8,19.8l-56.1,15c-20.4,5.5-27.3,31-12.3,46l28.8,28.8c-14.7,14.7-24.7,24.7-26.1,26.1
				c-5.9,5.9-5.9,15.4,0,21.2l42.4,42.4c2.9,2.9,6.8,4.4,10.6,4.4s7.7-1.5,10.6-4.4L270,243.5h227V421c0,4.1-3.4,7.5-7.5,7.5h-253
				c-4.1,0-7.5-3.4-7.5-7.5v-95.6c0-4.1-3.4-7.5-7.5-7.5c-4.1,0-7.5,3.4-7.5,7.5c0,0,0,0,0,0V421c0,6,2.3,11.7,6.6,15.9
				c4.3,4.2,9.9,6.6,15.9,6.6h253c12.4,0,22.5-10,22.5-22.5V236C512,231.8,508.6,228.5,504.5,228.5z M125.9,187.5
				c2.5-9.3,14.1-12.4,20.9-5.6l28.8,28.8c-10.3,10.3-22.2,22.2-34.7,34.7l9-33.8c1.1-4-1.3-8.1-5.3-9.2c-4-1.1-8.1,1.3-9.2,5.3
				l-8.7,32.5c-4.5-2.1-9.2-3.2-14-3.4L125.9,187.5z M104.7,252.7c8.1-2.4,16.8-0.1,22.7,6.2c-10.5,10.5-21.3,21.3-31.8,31.8
				C82.9,278.6,88.1,257.5,104.7,252.7z M18.7,310c-3.2-3.2-4.4-7.7-3.2-12.1c1.2-4.4,4.5-7.7,8.8-8.8l49.3-13.2
				c0.2,4.8,1.4,9.6,3.4,14l-32.5,8.7c-4,1.1-6.4,5.2-5.3,9.2c1.1,4,5.2,6.4,9.2,5.3l33.8-9c-12.5,12.5-24.3,24.3-34.7,34.7
				L18.7,310z M63.8,428.5l-42.4-42.4c1.6-1.6,13.8-13.8,31.4-31.4c0,0,0,0,0,0l0,0C66.5,340.9,174.9,232.5,191.4,216l0,0
				c13.2-13.2-4,4,31.4-31.4l42.4,42.4L63.8,428.5z M397.8,214.3l-14.6,14.2h-54.7c-15.7-15.3-15.6-14.6-15.1-16.2
				c0.5-1.6-0.2-1,24.7-4.7c2.4-0.4,4.6-1.9,5.6-4.1c11.2-22.7,10.4-22,12.1-22c1.6,0,0.9-0.6,12.1,22c1.1,2.2,3.2,3.7,5.6,4.1
				l23.2,3.4C398.3,211.3,398.9,213.2,397.8,214.3z"/>
		</g>
	</g>
</g>
</svg>
