<?xml version="1.0" encoding="utf-8"?>
<!-- Generator: Adobe Illustrator 24.0.1, SVG Export Plug-In . SVG Version: 6.00 Build 0)  -->
<svg version="1.1" id="Layer_1" xmlns="http://www.w3.org/2000/svg" xmlns:xlink="http://www.w3.org/1999/xlink" x="0px" y="0px"
	 viewBox="0 0 464 480" style="enable-background:new 0 0 464 480;" xml:space="preserve">
<style type="text/css">
	.st0{fill:#46535C;}
</style>
<g id="outline">
	<path class="st0" d="M264,200c0-40-21.4-77-56-97V72c0-4.4-3.6-8-8-8h-40V0h-16v64h-40c-4.4,0-8,3.6-8,8v31
		C42.4,134,24.1,202.5,55,256s99.4,71.9,153,41C242.7,277,264,240,264,200z M112,80h80v15.4c-25.8-9.9-54.2-9.9-80,0V80z M152,296
		c-53,0-96-43-96-96s43-96,96-96s96,43,96,96C247.9,253,205,295.9,152,296z"/>
	<path class="st0" d="M173.3,260.4c-4.6,1.6-9.4,2.7-14.2,3.2c-4.4,0.5-7.6,4.4-7.1,8.8c0.4,4.1,3.9,7.1,7.9,7.1c0.3,0,0.6,0,0.9,0
		c6.1-0.7,12-2,17.8-4.1c4.2-1.4,6.4-6,4.9-10.2s-6-6.4-10.2-4.9C173.4,260.3,173.4,260.3,173.3,260.4L173.3,260.4z"/>
	<path class="st0" d="M218.5,155.5c-2.4-3.7-7.4-4.8-11.1-2.4s-4.8,7.4-2.4,11.1c0,0.1,0.1,0.1,0.1,0.2c17.7,26.5,13.2,62-10.6,83.3
		c-3.3,2.9-3.6,8-0.6,11.3c2.9,3.3,8,3.6,11.3,0.6C235,233.1,240.7,188.7,218.5,155.5L218.5,155.5z"/>
	<path class="st0" d="M392,271v-31c0-4.4-3.6-8-8-8h-40V0h-16v232h-40c-4.4,0-8,3.6-8,8v31c-53.6,30.9-71.9,99.4-41,153
		s99.4,71.9,153,41s71.9-99.4,41-153C423.2,295,409,280.9,392,271z M296,248h80v15.4c-25.8-9.9-54.2-9.9-80,0V248z M336,464
		c-53,0-96-43-96-96s43-96,96-96s96,43,96,96C431.9,421,389,463.9,336,464z"/>
	<path class="st0" d="M357.3,428.4c-4.6,1.6-9.4,2.7-14.2,3.2c-4.4,0.5-7.6,4.4-7.1,8.8c0.4,4.1,3.9,7.1,7.9,7.1c0.3,0,0.6,0,0.9,0
		c6.1-0.7,12-2,17.8-4.1c4.2-1.4,6.4-6,4.9-10.2c-1.4-4.2-6-6.4-10.2-4.9C357.4,428.3,357.4,428.3,357.3,428.4L357.3,428.4z"/>
	<path class="st0" d="M402.5,323.5c-2.4-3.7-7.4-4.8-11.1-2.4c-3.7,2.4-4.8,7.4-2.4,11.1c0,0.1,0.1,0.1,0.1,0.2
		c17.7,26.5,13.2,62-10.6,83.3c-3.3,2.9-3.6,8-0.6,11.3s8,3.6,11.3,0.6C419,401.1,424.7,356.7,402.5,323.5L402.5,323.5z"/>
	<path class="st0" d="M24,288h16v16H24V288z"/>
	<path class="st0" d="M0,312h16v16H0V312z"/>
	<path class="st0" d="M48,312h16v16H48V312z"/>
	<path class="st0" d="M24,336h16v16H24V336z"/>
	<path class="st0" d="M248,32h16v16h-16V32z"/>
	<path class="st0" d="M232,48h16v16h-16V48z"/>
	<path class="st0" d="M264,48h16v16h-16V48z"/>
	<path class="st0" d="M248,64h16v16h-16V64z"/>
	<path class="st0" d="M464,136c0-3.4-2.2-6.5-5.5-7.6c-13.4-4.4-24.4-14-30.7-26.6l-4.7-9.4c-2-4-6.8-5.6-10.7-3.6
		c-1.5,0.8-2.8,2-3.6,3.6l-4.7,9.4c-6.3,12.6-17.3,22.2-30.7,26.6c-4.2,1.4-6.5,5.9-5.1,10.1c0.8,2.4,2.7,4.3,5.1,5.1
		c13.4,4.4,24.4,14,30.7,26.6l4.7,9.4c2,4,6.8,5.6,10.7,3.6c1.5-0.8,2.8-2,3.6-3.6l4.7-9.4c6.3-12.6,17.3-22.2,30.7-26.6
		C461.8,142.5,464,139.4,464,136z M416,158.5c-5.4-9.1-12.8-16.8-21.7-22.5c8.9-5.7,16.3-13.5,21.7-22.5
		c5.4,9.1,12.8,16.8,21.7,22.5C428.8,141.7,421.4,149.5,416,158.5z"/>
	<path class="st0" d="M155.8,373.8l-4.7-9.4c-2-4-6.8-5.6-10.7-3.6c-1.5,0.8-2.8,2-3.6,3.6l-4.7,9.4c-6.3,12.6-17.3,22.2-30.7,26.6
		c-4.2,1.4-6.5,5.9-5.1,10.1c0.8,2.4,2.7,4.3,5.1,5.1c13.4,4.4,24.4,14,30.7,26.6l4.7,9.4c2,4,6.8,5.6,10.7,3.6
		c1.5-0.8,2.8-2,3.6-3.6l4.7-9.4c6.3-12.6,17.3-22.2,30.7-26.6c4.2-1.4,6.5-5.9,5.1-10.1c-0.8-2.4-2.7-4.3-5.1-5.1
		C173.2,396,162.1,386.4,155.8,373.8z M144,430.5c-5.4-9.1-12.8-16.8-21.7-22.5c8.9-5.7,16.3-13.5,21.7-22.5
		c5.4,9.1,12.8,16.8,21.7,22.5C156.8,413.7,149.4,421.5,144,430.5z"/>
</g>
</svg>
