<?xml version="1.0" encoding="utf-8"?>
<!-- Generator: Adobe Illustrator 24.0.1, SVG Export Plug-In . SVG Version: 6.00 Build 0)  -->
<svg version="1.1" id="Layer_1" xmlns="http://www.w3.org/2000/svg" xmlns:xlink="http://www.w3.org/1999/xlink" x="0px" y="0px"
	 viewBox="0 0 481.3 474" style="enable-background:new 0 0 481.3 474;" xml:space="preserve">
<style type="text/css">
	.st0{fill:#46535C;}
</style>
<g>
	<path class="st0" d="M364.5,266.8c-0.5-3.1,0.5-6.2,2.7-8.3l77.2-75.2c8-7.8,10.8-19.2,7.4-29.9c-3.5-10.6-12.5-18.2-23.5-19.8
		L321.6,118c-3.1-0.4-5.7-2.4-7.1-5.2l-47.7-96.6c-4.9-10-15-16.2-26.1-16.2s-21.2,6.2-26.1,16.2l-47.7,96.6c-1.4,2.8-4,4.7-7.1,5.2
		L53.1,133.5c-11.1,1.6-20.1,9.2-23.5,19.8C26.1,164,29,175.4,37,183.2l77.2,75.2c2.2,2.2,3.2,5.3,2.7,8.3L98.6,373
		c-1.9,11,2.6,21.9,11.6,28.5c5,3.7,11,5.6,17.1,5.6c4.7,0,9.4-1.2,13.6-3.4l95.4-50.1c1.3-0.7,2.9-1.1,4.4-1.1c1.5,0,3,0.4,4.4,1.1
		l95.4,50.1c4.2,2.2,8.9,3.4,13.6,3.4c6.2,0,12.1-1.9,17.1-5.6c9-6.6,13.5-17.5,11.6-28.5L364.5,266.8z M359.5,385.5
		c-0.9,0.7-2.9,1.8-5.5,1.8c-1.5,0-3-0.4-4.4-1.1l-95.4-50.1c-4.2-2.2-8.9-3.3-13.6-3.3c-4.7,0-9.4,1.2-13.6,3.3l-95.4,50.1
		c-1.4,0.7-2.9,1.1-4.4,1.1c-2.6,0-4.6-1.2-5.5-1.8c-3-2.2-4.4-5.6-3.8-9.2l18.2-106.2c1.6-9.5-1.5-19.1-8.4-25.8l-77.2-75.2
		c-2.6-2.6-3.5-6.2-2.4-9.7c1.1-3.5,4-5.9,7.6-6.4l106.6-15.5c9.5-1.4,17.7-7.3,21.9-15.9L232.2,25c1.6-3.3,4.8-5.3,8.5-5.3
		c3.7,0,6.8,2,8.5,5.3l47.7,96.6c4.2,8.6,12.4,14.6,21.9,15.9L425.4,153c3.6,0.5,6.5,2.9,7.6,6.4c1.1,3.5,0.2,7.1-2.4,9.7
		l-77.2,75.2c-6.9,6.7-10,16.3-8.4,25.8l18.2,106.2C363.9,379.9,362.5,383.4,359.5,385.5z"/>
	<path class="st0" d="M363.8,52.1c1.7,1.2,3.7,1.9,5.8,1.9c3.2,0,6.1-1.5,8-4.1l13.6-18.8c1.5-2.1,2.2-4.7,1.8-7.3
		c-0.4-2.6-1.8-4.9-3.9-6.4c-1.7-1.2-3.7-1.9-5.8-1.9c-3.2,0-6.1,1.5-8,4.1l-13.6,18.8c-1.5,2.1-2.2,4.7-1.8,7.3
		C360.3,48.2,361.7,50.5,363.8,52.1z"/>
	<path class="st0" d="M103.7,49.8c1.8,2.5,4.8,4.1,8,4.1c2.1,0,4.1-0.7,5.8-1.9c2.1-1.5,3.5-3.8,3.9-6.4c0.4-2.6-0.2-5.2-1.8-7.3
		L106,19.4c-1.8-2.5-4.8-4.1-8-4.1c-2.1,0-4.1,0.7-5.8,1.9c-2.1,1.5-3.5,3.8-3.9,6.4c-0.4,2.6,0.2,5.2,1.8,7.3L103.7,49.8z"/>
	<path class="st0" d="M31.9,279.5c-1,0-2.1,0.2-3,0.5l-22.1,7.2c-2.5,0.8-4.5,2.6-5.7,4.9c-1.2,2.3-1.4,5-0.6,7.5
		c1.3,4.1,5.1,6.8,9.4,6.8c1,0,2.1-0.2,3-0.5l22.1-7.2c5.2-1.7,8-7.2,6.3-12.4C40,282.3,36.2,279.5,31.9,279.5z"/>
	<path class="st0" d="M240.7,431.1c-5.4,0-9.9,4.4-9.9,9.9v23.2c0,5.4,4.4,9.9,9.9,9.9s9.9-4.4,9.9-9.9V441
		C250.5,435.5,246.1,431.1,240.7,431.1z"/>
	<path class="st0" d="M474.5,287.2l-22.1-7.2c-1-0.3-2-0.5-3-0.5c-4.3,0-8,2.7-9.4,6.8c-1.7,5.2,1.2,10.7,6.3,12.4l22.1,7.2
		c1,0.3,2,0.5,3,0.5c4.3,0,8-2.7,9.4-6.8c0.8-2.5,0.6-5.2-0.6-7.5C479,289.7,477,288,474.5,287.2z"/>
</g>
</svg>
